<svg width="169" height="118" viewBox="0 0 169 118" fill="none" xmlns="http://www.w3.org/2000/svg">
<path d="M105.749 117.184L89.4913 79.6664M89.4913 79.6664C101.663 34.3388 94.4614 17.2571 55.8717 2.08113M89.4913 79.6664C50.6722 57.1912 44.9539 39.6973 55.8717 2.08113M89.4913 79.6664C131.32 75.9413 147.238 64.0077 165.59 29.7496M89.4913 79.6664C108.809 42.9404 125.979 32.8019 165.59 29.7496M89.4913 79.6664C56.2161 103.288 37.3631 109.887 3.0196 97.1043M89.4913 79.6664C52.711 64.6716 33.6445 67.5741 3.0196 97.1043M89.4913 79.6664L55.8717 2.08113M89.4913 79.6664L3.0196 97.1043M89.4913 79.6664L165.59 29.7496" stroke="white" stroke-opacity="0.3" stroke-width="3"/>
</svg>
