<svg width="135" height="150" viewBox="0 0 135 150" fill="none" xmlns="http://www.w3.org/2000/svg">
<path d="M12.1403 148.164L36.7802 109.797M80.4893 41.7364C103.872 35.4075 109.821 27.724 104.272 4.70359C82.1994 9.78713 76.0494 17.198 80.4893 41.7364ZM80.4893 41.7364L68.4907 60.4196M68.4907 60.4196L82.1105 60.766M68.4907 60.4196L61.7584 48.4518M68.4907 60.4196L52.2069 85.7754M82.1105 60.766C108.94 77.6022 119.987 78.0938 132.518 62.2023C111.328 47.4634 100.464 48.7036 82.1105 60.766ZM61.7584 48.4518C62.4093 23.2037 57.28 12.8186 35.5629 3.02838C32.7146 26.1799 38.8779 35.9565 61.7584 48.4518ZM52.2069 85.7754L65.3982 86.789M52.2069 85.7754L45.0461 74.4748M52.2069 85.7754L36.7802 109.797M65.3982 86.789C91.2963 104.803 100.816 102.554 113.571 88.112C92.642 74.0642 81.9995 73.419 65.3982 86.789ZM45.0461 74.4748C23.831 61.4768 16.6165 52.1741 18.8506 29.0514C42.335 40.1138 47.9327 50.1287 45.0461 74.4748ZM36.7802 109.797L50.4 110.143M36.7802 109.797L29.6194 98.4961M50.4 110.143C75.8802 125.417 87.1919 126.41 100.807 111.579C76.9161 94.8672 66.1461 95.5209 50.4 110.143ZM29.6194 98.4961C30.3507 74.1266 25.0205 63.795 4.0666 52.0718C-2.92657 70.456 3.76343 80.6023 29.6194 98.4961Z" stroke="white" stroke-opacity="0.3" stroke-width="3"/>
</svg>
