<svg width="111" height="154" viewBox="0 0 111 154" fill="none" xmlns="http://www.w3.org/2000/svg">
<path d="M95.7943 62.5049C92.6728 58.8921 91.1811 56.6302 89.0175 52.1259C87.1422 56.6936 85.2908 58.9547 82.159 62.5049C83.9346 62.567 85.1123 62.4816 85.8332 63.2387C84.1617 65.9126 82.7233 67.4824 79.5462 70.3677C80.3735 71.4193 80.9522 71.8671 82.4856 72.0451C81.4411 74.6981 79.8508 75.9169 76.3619 77.916L79.2196 79.908C77.5469 82.2986 76.2081 83.1293 73.7492 84.5208C74.7455 85.6646 75.7751 86.0983 78.893 86.3031C76.7837 89.245 75.0226 90.4962 71.3813 92.3837C77.0273 95.5961 80.4924 95.8656 87.3028 93.1175V99.932H90.6504V93.1175C96.7668 95.63 100.236 95.9245 106.572 92.3837C102.867 90.8388 101.318 89.4851 99.3868 86.3031C100.993 86.3646 102.041 86.0338 104.286 84.5208C101.652 83.1217 100.327 82.2223 98.897 79.908L101.428 77.916C97.7962 75.7519 96.041 74.4917 95.5494 72.0451C96.8127 71.7617 97.5965 71.3736 98.3254 70.3677C95.8941 68.2706 94.4923 66.6193 91.9568 63.2387C92.7878 62.6719 94.0459 62.6866 95.7943 62.5049Z" fill="#1A2922" stroke="#1A2922"/>
<path d="M72.1852 29.9571C66.6489 22.8821 64.0033 18.4524 60.1659 9.63165C56.8399 18.5767 53.5564 23.0047 48.0018 29.9571C51.1509 30.0788 53.2397 29.9115 54.5182 31.3942C51.5537 36.6306 49.0027 39.7048 43.3678 45.3552C44.835 47.4144 45.8614 48.2915 48.581 48.6401C46.7286 53.8356 43.908 56.2224 37.7202 60.1373L42.7886 64.0381C39.8218 68.7197 37.4474 70.3466 33.0862 73.0717C34.8533 75.3115 36.6794 76.1608 42.2093 76.5619C38.4682 82.3233 35.3448 84.7734 28.8867 88.4697C38.9003 94.7607 45.046 95.2884 57.1248 89.9069V103.252H63.0621V89.9069C73.9099 94.8272 80.0633 95.4039 91.3002 88.4697C84.7299 85.4443 81.9826 82.7933 78.5568 76.5619C81.4054 76.6824 83.2647 76.0346 87.2455 73.0717C82.5739 70.3318 80.2235 68.5704 77.688 64.0381L82.1771 60.1373C75.7357 55.8992 72.6228 53.4312 71.7507 48.6401C73.9914 48.085 75.3816 47.3251 76.6743 45.3552C72.3621 41.2483 69.8759 38.0145 65.3791 31.3942C66.8528 30.2841 69.0843 30.313 72.1852 29.9571Z" fill="#1A2922" stroke="#1A2922"/>
<path d="M44.0705 48.6707C40.0066 43.402 38.0647 40.1034 35.2478 33.5347C32.8064 40.1959 30.3962 43.4933 26.3188 48.6707C28.6304 48.7613 30.1637 48.6367 31.1022 49.7409C28.9261 53.6403 27.0536 55.9296 22.9173 60.1373C23.9943 61.6708 24.7477 62.3239 26.744 62.5835C25.3843 66.4525 23.3139 68.2299 18.7717 71.1453L22.4921 74.0502C20.3144 77.5364 18.5715 78.748 15.3702 80.7773C16.6673 82.4452 18.0078 83.0777 22.067 83.3764C19.3208 87.6667 17.0281 89.4913 12.2876 92.2439C19.638 96.9286 24.1492 97.3216 33.0156 93.3141V103.252H37.3738V93.3141C45.3365 96.9782 49.8534 97.4076 58.1017 92.2439C53.2789 89.9909 51.2622 88.0168 48.7476 83.3764C50.8385 83.4661 52.2034 82.9837 55.1254 80.7773C51.6963 78.7369 49.971 77.4252 48.1098 74.0502L51.405 71.1453C46.6767 67.9892 44.3917 66.1514 43.7516 62.5835C45.3964 62.1701 46.4168 61.6043 47.3657 60.1373C44.2004 57.079 42.3754 54.6708 39.0745 49.7409C40.1563 48.9142 41.7943 48.9357 44.0705 48.6707Z" fill="#1A2922" stroke="#1A2922"/>
<path d="M2.66357 48.8061V51.9117" stroke="black" stroke-linecap="round"/>
<path d="M1 50.3589H4.10568" stroke="black" stroke-linecap="round"/>
<path d="M84.9961 39.5105V42.6161" stroke="black" stroke-linecap="round"/>
<path d="M83.3325 41.0633H86.4382" stroke="black" stroke-linecap="round"/>
<path d="M108.235 64.7414V67.8471" stroke="black" stroke-linecap="round"/>
<path d="M106.572 66.2943H109.677" stroke="black" stroke-linecap="round"/>
<path d="M75.0366 1V4.10568" stroke="black" stroke-linecap="round"/>
<path d="M73.373 2.55284H76.4787" stroke="black" stroke-linecap="round"/>
<path d="M29.2227 12.9515V16.0572" stroke="black" stroke-linecap="round"/>
<path d="M27.5591 14.5044H30.6648" stroke="black" stroke-linecap="round"/>
<path fill-rule="evenodd" clip-rule="evenodd" d="M90.8241 99.268L61.2853 150.394L28.7426 99.268C32.0145 96.8308 33.7959 96.4001 36.92 96.5948C45.6988 98.9875 47.5882 98.8324 51.6893 98.4958C52.6234 98.4192 53.6724 98.3331 54.9436 98.2655C56.8589 97.7639 58.6883 97.5453 60.7967 97.2935C63.6843 96.9486 67.0951 96.5411 71.966 95.2581C80.6317 94.4449 84.6723 95.7351 90.8241 99.268Z" fill="white"/>
<path d="M61.2853 150.394L60.0199 151.199L61.3474 153.285L62.5841 151.144L61.2853 150.394ZM90.8241 99.268L92.1229 100.018L92.8752 98.7162L91.5711 97.9673L90.8241 99.268ZM28.7426 99.268L27.8465 98.0651L26.7288 98.8977L27.4772 100.073L28.7426 99.268ZM36.92 96.5948L37.3144 95.1476L37.1664 95.1072L37.0133 95.0977L36.92 96.5948ZM51.6893 98.4958L51.5666 97.0009V97.0009L51.6893 98.4958ZM54.9436 98.2655L55.0232 99.7634L55.1759 99.7553L55.3237 99.7166L54.9436 98.2655ZM60.7967 97.2935L60.9746 98.7829H60.9746L60.7967 97.2935ZM71.966 95.2581L71.8258 93.7647L71.7031 93.7762L71.5839 93.8076L71.966 95.2581ZM62.5841 151.144L92.1229 100.018L89.5253 98.5176L59.9865 149.644L62.5841 151.144ZM27.4772 100.073L60.0199 151.199L62.5507 149.588L30.008 98.4626L27.4772 100.073ZM37.0133 95.0977C35.3649 94.9949 33.9325 95.0473 32.4404 95.5124C30.9638 95.9726 29.5436 96.801 27.8465 98.0651L29.6386 100.471C31.2135 99.2978 32.3199 98.6923 33.3331 98.3765C34.3307 98.0655 35.351 97.9999 36.8267 98.0919L37.0133 95.0977ZM51.5666 97.0009C49.5153 97.1692 48.1434 97.2791 46.2151 97.077C44.257 96.8717 41.6845 96.3387 37.3144 95.1476L36.5255 98.042C40.9342 99.2436 43.6959 99.8294 45.9024 100.061C48.1388 100.295 49.7622 100.159 51.812 99.9908L51.5666 97.0009ZM54.8641 96.7677C53.569 96.8365 52.5009 96.9242 51.5666 97.0009L51.812 99.9908C52.746 99.9142 53.7757 99.8297 55.0232 99.7634L54.8641 96.7677ZM60.6188 95.8041C58.526 96.0541 56.5946 96.2825 54.5635 96.8145L55.3237 99.7166C57.1231 99.2453 58.8507 99.0366 60.9746 98.7829L60.6188 95.8041ZM71.5839 93.8076C66.8163 95.0634 63.4888 95.4612 60.6188 95.8041L60.9746 98.7829C63.8798 98.4359 67.3739 98.0189 72.3481 96.7087L71.5839 93.8076ZM91.5711 97.9673C88.445 96.1719 85.7484 94.883 82.676 94.1719C79.6025 93.4605 76.2516 93.3493 71.8258 93.7647L72.1062 96.7516C76.3461 96.3537 79.3483 96.481 81.9995 97.0946C84.6517 97.7085 87.0514 98.8311 90.0771 100.569L91.5711 97.9673ZM92.1229 100.018L101.991 82.9386L99.3934 81.4378L89.5253 98.5176L92.1229 100.018ZM15.0373 80.53L27.4772 100.073L30.008 98.4626L17.5681 78.9191L15.0373 80.53Z" fill="#1A2922"/>
</svg>
