<svg width="183" height="113" viewBox="0 0 183 113" fill="none" xmlns="http://www.w3.org/2000/svg">
<path d="M59.0953 101.114C64.4794 53.0717 57.5897 29.7452 3.44655 3.38367M59.0953 101.114C51.5006 90.5817 41.8752 80.6121 24.9505 63.0154C-2.21507 33.1401 8.49326 14.4864 3.44655 3.38367M59.0953 101.114C59.2627 54.3701 48.6951 32.2992 3.44655 3.38367M59.0953 101.114C50.5965 54.6462 38.3814 33.2014 3.44655 3.38367M59.0953 101.114C45.1071 60.1958 32.1728 39.068 3.44655 3.38367M59.0953 101.114C35.9939 63.9562 23.6638 42.6602 3.44655 3.38367M59.0953 101.114C27.7738 62.7097 15.9623 41.3186 3.44655 3.38367M70.0545 110.727C80.5881 37.4587 110.468 25.4942 179.808 23.6679M70.0545 110.727C106.86 100.802 114.883 100.863 141.347 80.3861C167.811 59.9088 171.289 40.2143 179.808 23.6679M70.0545 110.727C84.883 44.533 114.835 32.2686 179.808 23.6679M70.0545 110.727C95.2693 52.9895 120.859 36.0334 179.808 23.6679M70.0545 110.727C98.3416 63.3209 123.948 45.7089 179.808 23.6679M70.0545 110.727C108.112 72.2584 132.932 53.9263 179.808 23.6679M70.0545 110.727C119.389 80.7534 144.222 62.1882 179.808 23.6679M70.0545 110.727C128.35 86.9974 152.95 68.3279 179.808 23.6679" stroke="white" stroke-opacity="0.3" stroke-width="3"/>
</svg>
